<mxfile host="app.diagrams.net" modified="2021-05-06T11:49:03.714Z" agent="5.0 (Macintosh; Intel Mac OS X 10_14_6) AppleWebKit/537.36 (KHTML, like Gecko) Chrome/90.0.4430.85 Safari/537.36" etag="l6X4PUpro5DbET1u6fhz" version="14.6.10" type="github">
  <diagram id="eyVOWcAGurMYkYHBou0k" name="Page-1">
    <mxGraphModel dx="946" dy="470" grid="1" gridSize="10" guides="1" tooltips="1" connect="1" arrows="1" fold="1" page="1" pageScale="1" pageWidth="827" pageHeight="1169" math="0" shadow="0">
      <root>
        <mxCell id="0" />
        <mxCell id="1" parent="0" />
        <mxCell id="7diFMBNnvdC-JnGrKduw-21" style="edgeStyle=orthogonalEdgeStyle;rounded=0;orthogonalLoop=1;jettySize=auto;html=1;exitX=0.5;exitY=1;exitDx=0;exitDy=0;exitPerimeter=0;entryX=0.5;entryY=0;entryDx=0;entryDy=0;entryPerimeter=0;" edge="1" parent="1" source="7diFMBNnvdC-JnGrKduw-1" target="7diFMBNnvdC-JnGrKduw-4">
          <mxGeometry relative="1" as="geometry" />
        </mxCell>
        <mxCell id="7diFMBNnvdC-JnGrKduw-1" value="进入编辑页面" style="strokeWidth=2;html=1;shape=mxgraph.flowchart.terminator;whiteSpace=wrap;" vertex="1" parent="1">
          <mxGeometry x="300" y="50" width="110" height="40" as="geometry" />
        </mxCell>
        <mxCell id="7diFMBNnvdC-JnGrKduw-12" style="edgeStyle=orthogonalEdgeStyle;rounded=0;orthogonalLoop=1;jettySize=auto;html=1;exitX=0;exitY=0.5;exitDx=0;exitDy=0;exitPerimeter=0;entryX=0.5;entryY=0;entryDx=0;entryDy=0;" edge="1" parent="1" source="7diFMBNnvdC-JnGrKduw-4" target="7diFMBNnvdC-JnGrKduw-5">
          <mxGeometry relative="1" as="geometry" />
        </mxCell>
        <mxCell id="7diFMBNnvdC-JnGrKduw-13" style="edgeStyle=orthogonalEdgeStyle;rounded=0;orthogonalLoop=1;jettySize=auto;html=1;exitX=1;exitY=0.5;exitDx=0;exitDy=0;exitPerimeter=0;entryX=1;entryY=0.5;entryDx=0;entryDy=0;entryPerimeter=0;" edge="1" parent="1" source="7diFMBNnvdC-JnGrKduw-4" target="7diFMBNnvdC-JnGrKduw-9">
          <mxGeometry relative="1" as="geometry">
            <Array as="points">
              <mxPoint x="480" y="145" />
              <mxPoint x="480" y="215" />
            </Array>
          </mxGeometry>
        </mxCell>
        <mxCell id="7diFMBNnvdC-JnGrKduw-4" value="url是否有id" style="strokeWidth=2;html=1;shape=mxgraph.flowchart.decision;whiteSpace=wrap;rounded=0;" vertex="1" parent="1">
          <mxGeometry x="290" y="120" width="130" height="50" as="geometry" />
        </mxCell>
        <mxCell id="7diFMBNnvdC-JnGrKduw-26" style="edgeStyle=orthogonalEdgeStyle;rounded=0;orthogonalLoop=1;jettySize=auto;html=1;exitX=0.5;exitY=1;exitDx=0;exitDy=0;entryX=0.11;entryY=0.11;entryDx=0;entryDy=0;entryPerimeter=0;" edge="1" parent="1" source="7diFMBNnvdC-JnGrKduw-5" target="7diFMBNnvdC-JnGrKduw-23">
          <mxGeometry relative="1" as="geometry" />
        </mxCell>
        <mxCell id="7diFMBNnvdC-JnGrKduw-5" value="渲染已有文档" style="rounded=0;whiteSpace=wrap;html=1;absoluteArcSize=1;arcSize=14;strokeWidth=2;" vertex="1" parent="1">
          <mxGeometry x="40" y="270" width="110" height="40" as="geometry" />
        </mxCell>
        <mxCell id="7diFMBNnvdC-JnGrKduw-16" style="edgeStyle=orthogonalEdgeStyle;rounded=0;orthogonalLoop=1;jettySize=auto;html=1;exitX=0;exitY=0.5;exitDx=0;exitDy=0;exitPerimeter=0;" edge="1" parent="1" source="7diFMBNnvdC-JnGrKduw-9">
          <mxGeometry relative="1" as="geometry">
            <mxPoint x="220" y="270" as="targetPoint" />
          </mxGeometry>
        </mxCell>
        <mxCell id="7diFMBNnvdC-JnGrKduw-22" style="edgeStyle=orthogonalEdgeStyle;rounded=0;orthogonalLoop=1;jettySize=auto;html=1;exitX=0.5;exitY=1;exitDx=0;exitDy=0;exitPerimeter=0;entryX=0.5;entryY=0;entryDx=0;entryDy=0;" edge="1" parent="1" source="7diFMBNnvdC-JnGrKduw-9" target="7diFMBNnvdC-JnGrKduw-19">
          <mxGeometry relative="1" as="geometry" />
        </mxCell>
        <mxCell id="7diFMBNnvdC-JnGrKduw-9" value="url是否有template" style="strokeWidth=2;html=1;shape=mxgraph.flowchart.decision;whiteSpace=wrap;rounded=0;" vertex="1" parent="1">
          <mxGeometry x="285" y="190" width="140" height="50" as="geometry" />
        </mxCell>
        <mxCell id="7diFMBNnvdC-JnGrKduw-25" style="edgeStyle=orthogonalEdgeStyle;rounded=0;orthogonalLoop=1;jettySize=auto;html=1;exitX=0.5;exitY=1;exitDx=0;exitDy=0;entryX=0;entryY=0.5;entryDx=0;entryDy=0;entryPerimeter=0;" edge="1" parent="1" source="7diFMBNnvdC-JnGrKduw-17" target="7diFMBNnvdC-JnGrKduw-23">
          <mxGeometry relative="1" as="geometry" />
        </mxCell>
        <mxCell id="7diFMBNnvdC-JnGrKduw-17" value="渲染模板" style="rounded=0;whiteSpace=wrap;html=1;absoluteArcSize=1;arcSize=14;strokeWidth=2;" vertex="1" parent="1">
          <mxGeometry x="170" y="270" width="110" height="40" as="geometry" />
        </mxCell>
        <mxCell id="7diFMBNnvdC-JnGrKduw-24" style="edgeStyle=orthogonalEdgeStyle;rounded=0;orthogonalLoop=1;jettySize=auto;html=1;exitX=0.5;exitY=1;exitDx=0;exitDy=0;" edge="1" parent="1" source="7diFMBNnvdC-JnGrKduw-19" target="7diFMBNnvdC-JnGrKduw-23">
          <mxGeometry relative="1" as="geometry" />
        </mxCell>
        <mxCell id="7diFMBNnvdC-JnGrKduw-19" value="渲染空白文档" style="rounded=0;whiteSpace=wrap;html=1;absoluteArcSize=1;arcSize=14;strokeWidth=2;" vertex="1" parent="1">
          <mxGeometry x="300" y="270" width="110" height="40" as="geometry" />
        </mxCell>
        <mxCell id="7diFMBNnvdC-JnGrKduw-23" value="开始编辑" style="strokeWidth=2;html=1;shape=mxgraph.flowchart.terminator;whiteSpace=wrap;" vertex="1" parent="1">
          <mxGeometry x="300" y="360" width="110" height="40" as="geometry" />
        </mxCell>
        <mxCell id="7diFMBNnvdC-JnGrKduw-27" value="Y" style="text;html=1;align=center;verticalAlign=middle;resizable=0;points=[];autosize=1;strokeColor=none;" vertex="1" parent="1">
          <mxGeometry x="190" y="120" width="20" height="20" as="geometry" />
        </mxCell>
        <mxCell id="7diFMBNnvdC-JnGrKduw-28" value="N" style="text;html=1;align=center;verticalAlign=middle;resizable=0;points=[];autosize=1;strokeColor=none;" vertex="1" parent="1">
          <mxGeometry x="450" y="120" width="20" height="20" as="geometry" />
        </mxCell>
        <mxCell id="7diFMBNnvdC-JnGrKduw-29" value="Y" style="text;html=1;align=center;verticalAlign=middle;resizable=0;points=[];autosize=1;strokeColor=none;" vertex="1" parent="1">
          <mxGeometry x="240" y="190" width="20" height="20" as="geometry" />
        </mxCell>
        <mxCell id="7diFMBNnvdC-JnGrKduw-30" value="N" style="text;html=1;align=center;verticalAlign=middle;resizable=0;points=[];autosize=1;strokeColor=none;" vertex="1" parent="1">
          <mxGeometry x="360" y="240" width="20" height="20" as="geometry" />
        </mxCell>
      </root>
    </mxGraphModel>
  </diagram>
</mxfile>
